<?xml version="1.0" encoding="utf-8"?>
<!-- Generator: Adobe Illustrator 24.0.1, SVG Export Plug-In . SVG Version: 6.00 Build 0)  -->
<svg version="1.1" id="svg" xmlns="http://www.w3.org/2000/svg" xmlns:xlink="http://www.w3.org/1999/xlink" x="0px" y="0px"
	 viewBox="0 0 386.3 388.8" style="enable-background:new 0 0 386.3 388.8;" xml:space="preserve">
<style type="text/css">
	.st0{fill-rule:evenodd;clip-rule:evenodd;fill:#D2423E;}
	.st1{fill-rule:evenodd;clip-rule:evenodd;fill:#54DDBC;}
</style>
<g id="svgg">
	<path id="path0" class="st0" d="M188.2,0C125.5,4.8,63,35.9,28.3,95.3c-16.1,16.8-49.9,149.9-8.6,48.8
		c61.7-127.7,155-107.9,252.2-19.6c2.2,2.5,5.9,4.8,8.8-2.1c6.9-22.4-13.4-38.1-29.7-54.2c-26.4-25.3,19.6-5.4,38,11.7
		c19.3,16.9,25,35.7,48.4,48.4c31.9,13.7,56,20.2,29.6-22.4C333.6,38.2,261.4-1.1,188.2,0 M383.2,199.9
		c-49.2,146.4-138.9,184-265.9,66.8c-13.4-16.4-17.6,8-11.9,21.7c4.7,12.7,26.5,28.2,35.9,41.1c-0.1,8.1-8.4,0.1-19.2-3.5
		c-35.4-12.9-51.7-64.4-92.8-74.3c-34.7-3.8-23.6,0.1-13.5,27.4c27.5,53.8,75.2,94.4,144.7,107.5C257,401.1,349.4,342.1,376.2,251
		C376.9,253.5,392.8,193.1,383.2,199.9"/>
	<path id="path1" class="st1" d="M181.8,132.3c-14.6-5.8-5.7,38.7-8.5,48.1c-1.6,3.6-34.4-3-42.8,1.3c0.6,15.2-1.1,24.2-0.8,38.6
		c9.5-0.2,35.3,0.7,43.8,1.4c0.2,8.8,0.1,47.5,0.7,48.1c1.3,0.1,10.5,0.1,19.2,0c12.5-0.9,18.3,1.7,19.5-3.8
		c1.6-8.3-0.2-45.5,1.9-44.8c61.1-3.5,46.2,10.3,47.2-39.8c-9-0.2-52.6,0.4-48.6-0.8C209.4,123.8,224.9,133,181.8,132.3
		 M159.2,180.9c1.1,0-4.4,0.7-2.1-0.1C157.8,180.7,158.1,180.7,159.2,180.9 M262.9,201.9C263,200.3,263,201,262.9,201.9
		C263,208.7,263.3,197.9,262.9,201.9 M172.5,246.3c0,1,0,0,0.2,0.9C172.7,248,172.8,243.9,172.5,246.3"/>
</g>
</svg>
